<svg id="Capa_1" enable-background="new 0 0 504.5 504.5" height="512" viewBox="0 0 504.5 504.5" width="512" xmlns="http://www.w3.org/2000/svg"><g><g><path d="m123.543 283.585v82.5h289.955c8.284 0 15-6.716 15-15 0-7.283 0-60.231 0-67.5l-152.478-20.001z" fill="#8b9ba9"/><path d="m398.497 279.585v56.5h-274.954v30h289.955c8.284 0 15-6.716 15-15 0-6.902 0-60.73 0-67.5z" fill="#6c7a88"/></g><g><g><path d="m441.997 85.915h-273.452c-8.284 0-15 6.716-15 15v46.745h-100.035c-14.032 0-26.19 9.728-29.269 23.418l-11.353 50.486c-2.916 12.968-4.388 26.22-4.388 39.512v105.009h145.045c0-2.441 0-39.541 0-82.5h288.453c8.284 0 15-6.716 15-15v-167.67c-.001-8.285-6.716-15-15.001-15z" fill="#ff7e40"/><path d="m497 219.167h-40.002v-26.917h20.001c4.143 0 7.5-3.358 7.5-7.5s-3.357-7.5-7.5-7.5h-20.001v-26.917h30.001c4.143 0 7.5-3.358 7.5-7.5s-3.357-7.5-7.5-7.5h-30.001v-26.918h40.002c4.143 0 7.5-3.358 7.5-7.5s-3.357-7.5-7.5-7.5h-42.025c-2.595-4.479-7.428-7.5-12.977-7.5h-15v167.671h-273.453c0-52.767 0-104.502 0-105.927h-30v135.927h-22.5c-21.866 0-41.757 8.567-56.535 22.5h-36.01v60h145.045c0-2.035 0-39.305 0-82.5h92.454 195.999c5.549 0 10.382-3.021 12.977-7.5h32.024c4.143 0 7.5-3.358 7.5-7.5s-3.357-7.5-7.5-7.5h-30.001v-26.918h40.002c4.143 0 7.5-3.358 7.5-7.5s-3.357-7.501-7.5-7.501z" fill="#ff6344"/></g><path d="m7.5 366.085h54.896v-30h-54.896c-4.142 0-7.5 3.358-7.5 7.5v15c0 4.143 3.358 7.5 7.5 7.5z" fill="#8b9ba9"/><g><path d="m123.545 177.659h-71.824l-14.261 63.417h86.085z" fill="#9dc6fb"/><path d="m95.334 211.076h-51.128l-6.746 30h86.085v-63.417h-28.211z" fill="#80b4fb"/></g></g><g><circle cx="355.996" cy="366.085" fill="#4d5967" r="52.5"/><path d="m366.73 314.693c-6.154 11.369-4.433 25.873 5.177 35.482l-31.82 31.82c-9.609-9.61-24.113-11.332-35.483-5.177 4.968 23.817 26.122 41.767 51.393 41.767 28.949 0 52.5-23.551 52.5-52.5-.001-25.271-17.95-46.424-41.767-51.392z" fill="#35404a"/><circle cx="355.996" cy="366.085" fill="#fff9eb" r="22.5"/></g><g><circle cx="101.045" cy="366.085" fill="#4d5967" r="52.5"/><path d="m111.778 314.693c-6.154 11.369-4.433 25.873 5.177 35.482l-31.82 31.82c-9.609-9.61-24.113-11.332-35.483-5.177 4.968 23.817 26.122 41.767 51.393 41.767 28.949 0 52.5-23.551 52.5-52.5 0-25.271-17.949-46.424-41.767-51.392z" fill="#35404a"/><circle cx="101.045" cy="366.085" fill="#fff9eb" r="22.5"/></g><g fill="#fff9eb"><path d="m229.437 169.751v7.5h9.499c4.142 0 7.498 3.356 7.498 7.499s-3.356 7.5-7.498 7.5h-9.499v14.998c0 4.143-3.358 7.5-7.499 7.5s-7.498-3.356-7.498-7.5v-44.995c0-4.142 3.357-7.498 7.498-7.498h22.997c4.142 0 7.498 3.356 7.498 7.498 0 4.143-3.356 7.5-7.498 7.5h-15.498z"/><path d="m300.913 201.968c2.914 2.94 2.895 7.689-.045 10.605-1.464 1.449-3.372 2.174-5.281 2.174-1.93 0-3.859-.74-5.325-2.219l-12.672-12.779h-4v7.498c0 4.143-3.358 7.5-7.499 7.5s-7.498-3.356-7.498-7.5v-44.995c0-4.142 3.357-7.498 7.498-7.498h14.625c12.335 0 22.371 10.093 22.371 22.497 0 7.318-3.495 13.829-8.894 17.941zm-12.825-24.717c0-4.136-3.308-7.5-7.372-7.5h-7.126v14.998h7.126c4.064 0 7.372-3.364 7.372-7.498z"/><path d="m349.568 207.246c0 4.143-3.356 7.5-7.498 7.5h-22.997c-4.141 0-7.498-3.356-7.498-7.5v-44.995c0-4.142 3.357-7.498 7.498-7.498h22.997c4.142 0 7.498 3.356 7.498 7.498 0 4.143-3.356 7.5-7.498 7.5h-15.498v7.5h9.499c4.142 0 7.498 3.356 7.498 7.499s-3.356 7.5-7.498 7.5h-9.499v7.499h15.498c4.142-.001 7.498 3.355 7.498 7.497z"/><path d="m396.102 207.246c0 4.143-3.356 7.5-7.498 7.5h-22.997c-4.141 0-7.498-3.356-7.498-7.5v-44.995c0-4.142 3.357-7.498 7.498-7.498h22.997c4.142 0 7.498 3.356 7.498 7.498 0 4.143-3.356 7.5-7.498 7.5h-15.498v7.5h9.499c4.142 0 7.498 3.356 7.498 7.499s-3.356 7.5-7.498 7.5h-9.499v7.499h15.498c4.142-.001 7.498 3.355 7.498 7.497z"/></g></g></svg>